<svg width="900" height="350" viewBox="0 0 900 350" fill="none" xmlns="http://www.w3.org/2000/svg">
<rect width="150" height="150" fill="black"/>
<path fill-rule="evenodd" clip-rule="evenodd" d="M112.5 86.2437C106.321 96.8317 94.839 103.946 81.6955 103.946C62.0112 103.946 46.054 87.9888 46.054 68.3045C46.054 55.1611 53.1683 43.6793 63.7562 37.5C48.4961 42.6128 37.5 57.0258 37.5 74.0072C37.5 95.2662 54.7339 112.5 75.9929 112.5C92.9743 112.5 107.387 101.504 112.5 86.2437Z" fill="white"/>
<rect x="200" width="700" height="150" fill="black"/>
<rect x="200" y="200" width="700" height="150" fill="black"/>
<path d="M305.3 61.38L300.56 56.94C299.42 57.2999 296.12 57.48 294.44 57.48H262.1C259.58 57.48 257.06 57.24 254.78 56.88V65.22C257.6 64.98 259.58 64.8 262.1 64.8H293.36C291.8 67.74 287.12 73.02 282.32 75.96L288.56 80.94C294.44 76.74 300.14 69.18 302.96 64.5C303.5 63.6 304.64 62.16 305.3 61.38ZM280.82 69.4799H272.12C272.42 71.4 272.54 73.02 272.54 74.88C272.54 84.72 271.1 91.08 263.48 96.36C261.26 97.98 259.1 99 257.18 99.66L264.2 105.36C280.52 96.6 280.82 84.36 280.82 69.4799Z" fill="white"/>
<path d="M325.057 56.4L319.417 62.4C323.797 65.46 331.297 72 334.417 75.36L340.537 69.12C337.057 65.46 329.257 59.22 325.057 56.4ZM317.557 96.36L322.597 104.28C331.057 102.84 338.797 99.48 344.857 95.82C354.517 90 362.497 81.72 367.057 73.62L362.377 65.16C358.597 73.26 350.797 82.44 340.537 88.5C334.717 91.98 326.917 95.04 317.557 96.36Z" fill="white"/>
<path d="M407.517 53.88H398.697C398.937 55.32 399.117 58.08 399.117 59.4C399.117 61.2 399.057 62.94 398.997 64.62H390.417C388.137 64.62 385.017 64.44 382.497 64.2V72.06C385.077 71.82 388.377 71.82 390.417 71.82H398.337C397.017 80.94 394.017 87.66 388.437 93.18C386.037 95.64 383.037 97.68 380.577 99.06L387.537 104.7C398.277 97.08 403.977 87.66 406.197 71.82H419.697C419.697 78.3 418.917 90.3 417.177 94.08C416.517 95.52 415.677 96.18 413.757 96.18C411.417 96.18 408.297 95.88 405.357 95.34L406.317 103.38C409.197 103.62 412.797 103.86 416.217 103.86C420.357 103.86 422.637 102.3 423.957 99.24C426.537 93.12 427.257 76.38 427.497 69.9C427.497 69.24 427.737 67.68 427.917 66.72L422.697 64.2C421.257 64.44 419.697 64.62 418.197 64.62H406.917C407.037 62.88 407.097 61.08 407.157 59.22C407.217 57.78 407.337 55.26 407.517 53.88Z" fill="white"/>
<path d="M446.117 74.22V83.64C448.337 83.46 452.357 83.34 455.777 83.34H487.997C490.517 83.34 493.577 83.58 495.017 83.64V74.22C493.457 74.34 490.817 74.58 487.997 74.58H455.777C452.657 74.58 448.277 74.4 446.117 74.22Z" fill="white"/>
<path d="M536.977 49.2H534.217V109.2H536.977V49.2Z" fill="white"/>
<path d="M585.717 78.84C587.037 74.22 588.357 69.18 589.497 64.32H589.797C591.057 69.12 592.257 74.22 593.637 78.84L594.957 83.7H584.397L585.717 78.84ZM570.357 102H579.357L582.477 90.6H596.877L599.997 102H609.297L595.017 57.54H584.577L570.357 102Z" fill="white"/>
<path d="M619.495 102H627.895V84.18C627.895 79.08 627.235 73.5 626.815 68.7H627.115L631.615 78.24L644.455 102H653.455V57.54H645.055V75.3C645.055 80.34 645.775 86.22 646.195 90.84H645.895L641.455 81.24L628.555 57.54H619.495V102Z" fill="white"/>
<path d="M687.556 102.84C693.316 102.84 698.056 100.56 701.716 96.3L697.036 90.78C694.636 93.36 691.696 95.16 687.856 95.16C680.836 95.16 676.276 89.34 676.276 79.68C676.276 70.14 681.316 64.38 688.036 64.38C691.396 64.38 693.976 65.94 696.256 68.1L700.876 62.46C697.996 59.46 693.496 56.76 687.856 56.76C676.636 56.76 667.216 65.34 667.216 79.98C667.216 94.8 676.336 102.84 687.556 102.84Z" fill="white"/>
<path d="M713.87 102H722.75V82.8H739.55V102H748.37V57.54H739.55V75.06H722.75V57.54H713.87V102Z" fill="white"/>
<path d="M781.92 102.84C793.68 102.84 801.78 94.02 801.78 79.62C801.78 65.22 793.68 56.76 781.92 56.76C770.16 56.76 762.06 65.16 762.06 79.62C762.06 94.02 770.16 102.84 781.92 102.84ZM781.92 95.16C775.32 95.16 771.12 89.1 771.12 79.62C771.12 70.08 775.32 64.38 781.92 64.38C788.52 64.38 792.72 70.08 792.72 79.62C792.72 89.1 788.52 95.16 781.92 95.16Z" fill="white"/>
<path d="M815.452 102H824.332V85.2H830.512L839.632 102H849.532L839.152 83.82C844.252 81.84 847.612 77.7 847.612 71.04C847.612 60.84 840.232 57.54 830.932 57.54H815.452V102ZM824.332 78.18V64.62H830.092C835.792 64.62 838.972 66.24 838.972 71.04C838.972 75.78 835.792 78.18 830.092 78.18H824.332Z" fill="white"/>
<path d="M283.38 255.2L274.62 252.32C274.08 254.36 272.82 257.12 271.92 258.62C268.92 263.78 263.7 271.52 253.2 277.94L259.92 282.92C265.8 278.9 271.02 273.62 275.04 268.4H291.9C290.94 272.9 287.46 280.1 283.38 284.78C278.16 290.72 271.5 295.94 259.2 299.6L266.28 305.96C277.56 301.52 284.82 296 290.52 289.04C295.92 282.32 299.34 274.34 300.96 269C301.44 267.5 302.28 265.82 302.94 264.68L296.82 260.9C295.44 261.32 293.46 261.62 291.6 261.62H279.54C279.6 261.5 279.66 261.44 279.72 261.32C280.44 260 282 257.3 283.38 255.2Z" fill="white"/>
<path d="M365.18 255.44H356.12C356.36 257.12 356.48 259.04 356.48 261.44V272.84C356.48 282.2 355.7 286.7 351.56 291.2C347.96 295.1 343.1 297.38 337.16 298.76L343.4 305.36C347.78 303.98 354.02 301.04 357.98 296.72C362.42 291.8 364.94 286.22 364.94 273.32V261.44C364.94 259.04 365.06 257.12 365.18 255.44ZM337.34 255.92H328.7C328.88 257.3 328.94 259.4 328.94 260.54V280.76C328.94 282.56 328.7 284.9 328.64 286.04H337.34C337.22 284.66 337.16 282.32 337.16 280.82V260.54C337.16 258.62 337.22 257.3 337.34 255.92Z" fill="white"/>
<path d="M393.34 260.12V268.34C394.84 268.22 397.42 268.1 399.04 268.1H410.62V292.58H395.38C393.52 292.58 391.36 292.4 389.5 292.1V300.8C391.48 300.56 393.58 300.5 395.38 300.5H434.92C436.3 300.5 438.82 300.56 440.56 300.8V292.1C439 292.34 437.08 292.58 434.92 292.58H419.02V268.1H431.68C433.42 268.1 435.52 268.22 437.32 268.34V260.12C435.58 260.3 433.48 260.48 431.68 260.48H399.04C397.36 260.48 394.9 260.3 393.34 260.12Z" fill="white"/>
<path d="M456.72 278.66L460.5 286.22C467.88 284.06 475.5 280.82 481.68 277.58V296.78C481.68 299.42 481.5 303.2 481.26 304.64H490.74C490.32 303.14 490.2 299.42 490.2 296.78V272.54C496.02 268.7 501.78 264.02 506.34 259.52L499.86 253.34C495.96 258.08 489.12 264.08 482.94 267.92C476.28 272 467.46 275.9 456.72 278.66Z" fill="white"/>
<path d="M552.738 254.48L544.038 251.78C543.498 253.82 542.238 256.58 541.278 258.02C538.278 263.24 532.698 271.46 522.198 278L528.678 282.98C534.738 278.78 540.318 273.02 544.518 267.44H561.678C560.778 271.16 558.198 276.38 555.078 280.7C551.298 278.18 547.518 275.72 544.338 273.92L538.998 279.38C542.058 281.3 546.018 284 549.918 286.88C544.938 291.86 538.278 296.72 527.898 299.9L534.858 305.96C544.218 302.42 551.058 297.32 556.338 291.74C558.798 293.72 561.018 295.58 562.638 297.08L568.338 290.3C566.598 288.86 564.258 287.12 561.678 285.26C565.938 279.26 568.938 272.84 570.558 267.98C571.098 266.48 571.878 264.86 572.538 263.72L566.418 259.94C565.098 260.36 563.058 260.6 561.198 260.6H549.018C549.738 259.28 551.238 256.58 552.738 254.48Z" fill="white"/>
<path d="M592.118 274.22V283.64C594.338 283.46 598.358 283.34 601.778 283.34H633.998C636.518 283.34 639.578 283.58 641.018 283.64V274.22C639.458 274.34 636.818 274.58 633.998 274.58H601.778C598.658 274.58 594.278 274.4 592.118 274.22Z" fill="white"/>
<path d="M710.218 280.88C710.218 267.8 700.858 257.48 685.978 257.48C670.438 257.48 658.438 269.3 658.438 283.16C658.438 293.3 663.958 300.62 670.618 300.62C677.158 300.62 682.318 293.18 685.918 281.06C687.658 275.42 688.678 269.9 689.518 264.8C697.618 266.18 702.118 272.36 702.118 280.64C702.118 289.4 696.118 294.92 688.438 296.72C686.818 297.08 685.138 297.44 682.858 297.68L687.358 304.82C702.478 302.48 710.218 293.54 710.218 280.88ZM666.118 282.38C666.118 275.78 671.458 267.02 681.358 264.98C680.698 269.96 679.558 275.06 678.178 279.5C675.718 287.6 673.378 291.38 670.858 291.38C668.518 291.38 666.118 288.44 666.118 282.38Z" fill="white"/>
<path d="M738.258 277.58V273.86H748.818V277.58H738.258ZM748.818 268.88H738.258V265.16H748.818V268.88ZM767.118 268.88H755.958V265.16H767.118V268.88ZM767.118 277.58H755.958V273.86H767.118V277.58ZM779.478 292.1V285.86H755.958V282.92H774.258V259.76H770.538C772.098 257.9 773.778 255.74 775.278 253.64L767.838 251.24C766.638 253.82 764.598 257.12 762.738 259.76H754.338L756.918 258.86C756.078 256.7 754.218 253.4 752.538 251L746.178 253.04C747.438 255.08 748.818 257.72 749.658 259.76H740.418L742.098 258.98C740.958 256.76 738.438 253.46 736.278 251.24L730.278 253.88C731.778 255.56 733.398 257.84 734.598 259.76H731.418V282.92H748.818V285.86H725.838V292.1H743.298C738.138 295.76 730.818 298.88 724.098 300.56C725.718 302.06 727.818 304.76 728.958 306.56C735.858 304.34 743.238 300.32 748.818 295.58V307.28H755.958V295.16C761.358 300.32 768.618 304.4 776.118 306.56C777.198 304.76 779.298 301.82 780.918 300.38C773.838 298.88 766.698 295.82 761.718 292.1H779.478Z" fill="white"/>
<path d="M831.638 265.04C830.018 265.04 829.658 264.92 829.658 263.48V260.24H840.278V262.94C839.498 262.7 838.838 262.4 838.298 262.1C838.118 264.5 837.818 265.04 836.498 265.04H831.638ZM837.098 276.32V279.38H805.958V276.32H837.098ZM847.418 254.72H824.258V251.18H816.998V254.72H794.018V264.56H800.858V260.24H809.918C808.778 263.96 805.958 265.82 794.858 266.72C796.058 267.92 797.498 270.2 797.978 271.7L799.298 271.52V279.86C799.298 286.46 798.578 295.7 792.158 302.24C793.658 303.08 796.478 305.42 797.558 306.74C803.438 300.68 805.298 291.74 805.838 284.36H822.098V289.4H814.418V285.62H807.938V294.32H822.098V299.84H812.438V295.82H805.958V306.56H812.438V304.82H838.298V306.38H845.138V295.82H838.298V299.84H828.938V294.32H843.458V285.62H836.738V289.4H828.938V284.36H844.298V271.4H800.258C812.078 269.66 815.678 266.48 817.178 260.24H822.638V263.54C822.638 268.46 824.138 269.84 830.498 269.84H837.398C841.718 269.84 843.398 268.52 843.938 263.9C843.338 263.78 842.678 263.66 842.018 263.48H847.418V254.72Z" fill="white"/>
</svg>
